<?xml version="1.0" encoding="UTF-8"?>
<svg width="700pt" height="700pt" version="1.1" viewBox="0 0 700 700" xmlns="http://www.w3.org/2000/svg" xmlns:xlink="http://www.w3.org/1999/xlink">
 <defs>
  <symbol id="k" overflow="visible">
   <path d="m38.281-2.2812c-1.9688 1.0234-4.0273 1.793-6.1719 2.3125-2.1367 0.51953-4.3672 0.78125-6.6875 0.78125-6.9375 0-12.438-1.9375-16.5-5.8125-4.0547-3.8828-6.0781-9.1445-6.0781-15.781 0-6.6641 2.0234-11.938 6.0781-15.812 4.0625-3.875 9.5625-5.8125 16.5-5.8125 2.3203 0 4.5508 0.26172 6.6875 0.78125 2.1445 0.52344 4.2031 1.293 6.1719 2.3125v8.625c-1.9922-1.3633-3.9531-2.3594-5.8906-2.9844-1.9375-0.63281-3.9766-0.95312-6.1094-0.95312-3.8359 0-6.8516 1.2305-9.0469 3.6875-2.1875 2.4492-3.2812 5.8359-3.2812 10.156 0 4.293 1.0938 7.668 3.2812 10.125 2.1953 2.4609 5.2109 3.6875 9.0469 3.6875 2.1328 0 4.1719-0.31641 6.1094-0.95312 1.9375-0.63281 3.8984-1.6289 5.8906-2.9844z"/>
  </symbol>
  <symbol id="c" overflow="visible">
   <path d="m28.016-22.734c-0.875-0.41406-1.7461-0.71875-2.6094-0.90625-0.86719-0.19531-1.7344-0.29688-2.6094-0.29688-2.5742 0-4.5547 0.82422-5.9375 2.4688-1.3867 1.6484-2.0781 4.0078-2.0781 7.0781v14.391h-9.9844v-31.25h9.9844v5.1406c1.2891-2.0508 2.7656-3.5469 4.4219-4.4844 1.6641-0.9375 3.6602-1.4062 5.9844-1.4062 0.34375 0 0.70703 0.015625 1.0938 0.046875 0.39453 0.023437 0.96094 0.078125 1.7031 0.17188z"/>
  </symbol>
  <symbol id="a" overflow="visible">
   <path d="m35.984-15.703v2.8438h-23.344c0.23828 2.3438 1.082 4.1055 2.5312 5.2812 1.457 1.168 3.4883 1.75 6.0938 1.75 2.0938 0 4.2422-0.3125 6.4531-0.9375 2.207-0.625 4.4727-1.5664 6.7969-2.8281v7.7031c-2.3672 0.88672-4.7305 1.5586-7.0938 2.0156-2.3555 0.45703-4.7148 0.6875-7.0781 0.6875-5.6562 0-10.055-1.4375-13.188-4.3125-3.1367-2.875-4.7031-6.9062-4.7031-12.094 0-5.0938 1.5352-9.0977 4.6094-12.016 3.082-2.9258 7.3203-4.3906 12.719-4.3906 4.9062 0 8.832 1.4805 11.781 4.4375 2.9453 2.9609 4.4219 6.9141 4.4219 11.859zm-10.266-3.3281c0-1.8945-0.55469-3.4219-1.6562-4.5781-1.1055-1.1641-2.5547-1.75-4.3438-1.75-1.9297 0-3.4961 0.54688-4.7031 1.6406-1.2109 1.0859-1.9648 2.6484-2.2656 4.6875z"/>
  </symbol>
  <symbol id="h" overflow="visible">
   <path d="m18.812-14.062c-2.0859 0-3.6523 0.35547-4.7031 1.0625-1.0547 0.71094-1.5781 1.75-1.5781 3.125 0 1.2617 0.42188 2.25 1.2656 2.9688s2.0195 1.0781 3.5312 1.0781c1.875 0 3.4531-0.67188 4.7344-2.0156 1.2891-1.3516 1.9375-3.0469 1.9375-5.0781v-1.1406zm15.25-3.7656v17.828h-10.062v-4.625c-1.3438 1.8984-2.8555 3.2773-4.5312 4.1406-1.668 0.86328-3.7031 1.2969-6.1094 1.2969-3.2305 0-5.8555-0.94141-7.875-2.8281-2.0234-1.8945-3.0312-4.3477-3.0312-7.3594 0-3.6641 1.2578-6.3516 3.7812-8.0625 2.5195-1.707 6.4766-2.5625 11.875-2.5625h5.8906v-0.78125c0-1.582-0.625-2.7383-1.875-3.4688-1.25-0.73828-3.1953-1.1094-5.8281-1.1094-2.1484 0-4.1406 0.21484-5.9844 0.64062-1.8359 0.42969-3.543 1.0703-5.125 1.9219v-7.6094c2.1328-0.51953 4.2812-0.91406 6.4375-1.1875 2.1641-0.26953 4.3281-0.40625 6.4844-0.40625 5.6328 0 9.7031 1.1172 12.203 3.3438 2.5 2.2188 3.75 5.8281 3.75 10.828z"/>
  </symbol>
  <symbol id="b" overflow="visible">
   <path d="m15.703-40.125v8.875h10.297v7.1406h-10.297v13.25c0 1.4609 0.28516 2.4453 0.85938 2.9531 0.58203 0.51172 1.7266 0.76562 3.4375 0.76562h5.1406v7.1406h-8.5625c-3.9492 0-6.7461-0.82031-8.3906-2.4688-1.6484-1.6445-2.4688-4.4414-2.4688-8.3906v-13.25h-4.9688v-7.1406h4.9688v-8.875z"/>
  </symbol>
  <symbol id="g" overflow="visible">
   <path d="m26.062-26.672v-16.734h10.047v43.406h-10.047v-4.5156c-1.375 1.8438-2.8906 3.1953-4.5469 4.0469s-3.5742 1.2812-5.75 1.2812c-3.8555 0-7.0234-1.5312-9.5-4.5938-2.4688-3.0625-3.7031-7-3.7031-11.812 0-4.8203 1.2344-8.7578 3.7031-11.812 2.4766-3.0625 5.6445-4.5938 9.5-4.5938 2.1562 0 4.0664 0.43359 5.7344 1.2969 1.6641 0.86719 3.1875 2.2109 4.5625 4.0312zm-6.5938 20.234c2.1445 0 3.7812-0.78125 4.9062-2.3438s1.6875-3.832 1.6875-6.8125c0-2.9766-0.5625-5.25-1.6875-6.8125s-2.7617-2.3438-4.9062-2.3438c-2.1172 0-3.7344 0.78125-4.8594 2.3438s-1.6875 3.8359-1.6875 6.8125c0 2.9805 0.5625 5.25 1.6875 6.8125s2.7422 2.3438 4.8594 2.3438z"/>
  </symbol>
  <symbol id="f" overflow="visible">
   <path d="m21.422-6.4375c2.1445 0 3.7812-0.78125 4.9062-2.3438s1.6875-3.832 1.6875-6.8125c0-2.9766-0.5625-5.25-1.6875-6.8125s-2.7617-2.3438-4.9062-2.3438c-2.1367 0-3.7773 0.78906-4.9219 2.3594-1.1484 1.5742-1.7188 3.8398-1.7188 6.7969 0 2.9609 0.57031 5.2266 1.7188 6.7969 1.1445 1.5742 2.7852 2.3594 4.9219 2.3594zm-6.6406-20.234c1.3828-1.8203 2.9102-3.1641 4.5781-4.0312 1.6758-0.86328 3.6016-1.2969 5.7812-1.2969 3.8438 0 7 1.5312 9.4688 4.5938 2.4766 3.0547 3.7188 6.9922 3.7188 11.812 0 4.8125-1.2422 8.75-3.7188 11.812-2.4688 3.0625-5.625 4.5938-9.4688 4.5938-2.1797 0-4.1055-0.43359-5.7812-1.2969-1.668-0.86328-3.1953-2.207-4.5781-4.0312v4.5156h-9.9844v-43.406h9.9844z"/>
  </symbol>
  <symbol id="e" overflow="visible">
   <path d="m0.28125-41.656h10.797l11.047 30.75 11.016-30.75h10.797l-15.422 41.656h-12.812z"/>
  </symbol>
  <symbol id="d" overflow="visible">
   <path d="m30.047-30.266v8.1406c-1.3555-0.92578-2.7188-1.6133-4.0938-2.0625-1.3672-0.44531-2.7812-0.67188-4.25-0.67188-2.793 0-4.9648 0.8125-6.5156 2.4375-1.5547 1.625-2.3281 3.9023-2.3281 6.8281 0 2.918 0.77344 5.1953 2.3281 6.8281 1.5508 1.625 3.7227 2.4375 6.5156 2.4375 1.5625 0 3.0469-0.23438 4.4531-0.70312s2.7031-1.1562 3.8906-2.0625v8.1719c-1.5625 0.57422-3.1523 1.0039-4.7656 1.2969-1.6055 0.28906-3.2148 0.4375-4.8281 0.4375-5.6367 0-10.047-1.4453-13.234-4.3438-3.1797-2.8945-4.7656-6.9141-4.7656-12.062 0-5.1562 1.5859-9.1758 4.7656-12.062 3.1875-2.8945 7.5977-4.3438 13.234-4.3438 1.6328 0 3.2422 0.14844 4.8281 0.4375 1.5938 0.28125 3.1797 0.71484 4.7656 1.2969z"/>
  </symbol>
  <symbol id="j" overflow="visible">
   <path d="m19.672-24.859c-2.2188 0-3.9141 0.79688-5.0781 2.3906-1.1562 1.5859-1.7344 3.875-1.7344 6.875 0 2.9922 0.57812 5.2812 1.7344 6.875 1.1641 1.5938 2.8594 2.3906 5.0781 2.3906 2.1758 0 3.8359-0.79688 4.9844-2.3906 1.1562-1.5938 1.7344-3.8828 1.7344-6.875 0-3-0.57812-5.2891-1.7344-6.875-1.1484-1.5938-2.8086-2.3906-4.9844-2.3906zm0-7.1406c5.375 0 9.5703 1.4531 12.594 4.3594 3.0195 2.8984 4.5312 6.9141 4.5312 12.047 0 5.1367-1.5117 9.1562-4.5312 12.062-3.0234 2.8984-7.2188 4.3438-12.594 4.3438-5.3984 0-9.6172-1.4453-12.656-4.3438-3.043-2.9062-4.5625-6.9258-4.5625-12.062 0-5.1328 1.5195-9.1484 4.5625-12.047 3.0391-2.9062 7.2578-4.3594 12.656-4.3594z"/>
  </symbol>
  <symbol id="i" overflow="visible">
   <path d="m29.219-30.266v7.5781c-2.1484-0.88281-4.2148-1.5508-6.2031-2-1.9922-0.44531-3.8711-0.67188-5.6406-0.67188-1.8984 0-3.3047 0.24219-4.2188 0.71875-0.91797 0.46875-1.375 1.1992-1.375 2.1875 0 0.79297 0.34375 1.4023 1.0312 1.8281 0.69531 0.42969 1.9531 0.74609 3.7656 0.95312l1.75 0.25c5.1133 0.65625 8.5508 1.7305 10.312 3.2188 1.7695 1.4805 2.6562 3.8125 2.6562 7 0 3.3242-1.2305 5.8242-3.6875 7.5-2.4492 1.6797-6.1094 2.5156-10.984 2.5156-2.0625 0-4.1992-0.16797-6.4062-0.5-2.1992-0.32031-4.4609-0.80469-6.7812-1.4531v-7.5938c1.9883 0.96875 4.0234 1.6992 6.1094 2.1875 2.0938 0.48047 4.2227 0.71875 6.3906 0.71875 1.9453 0 3.4102-0.26953 4.3906-0.8125 0.98828-0.53906 1.4844-1.3438 1.4844-2.4062 0-0.88281-0.33984-1.5469-1.0156-1.9844-0.67969-0.4375-2.0312-0.77344-4.0625-1.0156l-1.75-0.23438c-4.4492-0.55078-7.5703-1.582-9.3594-3.0938-1.7812-1.5078-2.6719-3.7969-2.6719-6.8594 0-3.3125 1.1328-5.7656 3.4062-7.3594 2.2695-1.6016 5.75-2.4062 10.438-2.4062 1.8438 0 3.7734 0.14062 5.7969 0.42188 2.0312 0.27344 4.2383 0.71094 6.625 1.3125z"/>
  </symbol>
 </defs>
 <g>
  <path d="m322.96 234.32h-13.211c-3.1602 0-5.7148-2.5547-5.7148-5.7148 0-3.1602 2.5547-5.7148 5.7148-5.7148h13.211c3.1602 0 5.7148 2.5547 5.7148 5.7148-0.003906 3.1602-2.5586 5.7148-5.7148 5.7148z"/>
  <path d="m390.25 234.32h-13.211c-3.1602 0-5.7148-2.5547-5.7148-5.7148 0-8.7578 12.684-4.8711 18.922-5.7148 3.1602 0 5.7148 2.5547 5.7148 5.7148 0.003906 3.1602-2.5547 5.7148-5.7109 5.7148z"/>
  <path d="m413.66 377.03v-22.398c13.715-12.23 25.145-28.344 32.688-47.312 8.1133-3.4297 44.688-54.855 44.688-124.57 0-44.688-14.398-86.855-38.629-118.06-33.828 26.629-70.285 55.543-93.027 76.801 29.145 27.312 25.941 23.887 32.23 30.629 52.457 54.855 46.285 120.91 46.742 123.54-30.742 94.285-140.8 97.027-174.52 5.0273 0.80078-6.3984-5.6016-52.23 26.285-102.4 26.516-41.941 117.37-112.34 154.86-142.52-24.457-27.316-57.031-44.344-93.945-44.344-77.145 0-139.89 76.801-139.89 171.31 0 46.629 14.973 90.059 42.172 122.52 7.543 19.887 18.973 36.801 33.027 49.371v22.398c-67.539 5.8281-142.51 26.629-142.51 127.43 0 12 1.1445 25.258 3.3125 39.312 0.46094 2.7461 2.8594 4.8008 5.7148 4.8008h394.29c2.8555 0 5.2578-2.0586 5.7148-4.8008 2.1719-13.258 3.3125-26.398 3.3125-39.312 0.003906-100.8-74.969-121.6-142.51-127.43zm-11.426 31.203c0 11.656-22.973 20.914-52.23 20.914s-52.23-9.2578-52.23-20.914v-44.688c4 2.7422 8 5.0273 12.227 7.0859h0.11328c28.914 14.059 60.113 13.145 92.113-6.8555l0.003906 44.457z"/>
  <path d="m497.94 474.39h-53.059c-3.1602 0-5.7148-2.5547-5.7148-5.7148s2.5547-5.7148 5.7148-5.7148h53.059c3.1602 0 5.7148 2.5547 5.7148 5.7148s-2.5547 5.7148-5.7148 5.7148z"/>
  <path d="m350 315.38c-11.82 0-22.672-5.4023-29.777-14.828-1.8984-2.5156-1.3945-6.0977 1.125-8.0039 2.5234-1.9023 6.1094-1.3789 8.0039 1.125 4.9219 6.5273 12.445 10.273 20.648 10.273 8.1992 0 15.719-3.7422 20.637-10.273 1.8867-2.5156 5.4844-3.0352 8.0039-1.125 2.5234 1.8984 3.0234 5.4805 1.125 8.0039-7.0977 9.4258-17.945 14.828-29.766 14.828z"/>
  <use x="70" y="731.429687" xlink:href="#k"/>
  <use x="111.9375" y="731.429687" xlink:href="#c"/>
  <use x="140.117188" y="731.429687" xlink:href="#a"/>
  <use x="178.871094" y="731.429687" xlink:href="#h"/>
  <use x="217.433594" y="731.429687" xlink:href="#b"/>
  <use x="244.75" y="731.429687" xlink:href="#a"/>
  <use x="283.503906" y="731.429687" xlink:href="#g"/>
  <use x="344.300781" y="731.429687" xlink:href="#f"/>
  <use x="442.347656" y="731.429687" xlink:href="#e"/>
  <use x="486.574219" y="731.429687" xlink:href="#a"/>
  <use x="525.328125" y="731.429687" xlink:href="#d"/>
  <use x="559.203125" y="731.429687" xlink:href="#b"/>
  <use x="586.519531" y="731.429687" xlink:href="#j"/>
  <use x="625.777344" y="731.429687" xlink:href="#c"/>
  <use x="653.957031" y="731.429687" xlink:href="#i"/>
 </g>
</svg>
